<svg width="25" height="25" viewBox="0 0 25 25" fill="none" xmlns="http://www.w3.org/2000/svg">
<path d="M13.1149 21.3979H4.49395C3.94512 21.3979 3.50049 20.953 3.50049 20.4044V4.3914C3.50049 3.84264 3.94519 3.39795 4.49395 3.39795H20.5071C21.0557 3.39795 21.5005 3.84264 21.5005 4.3914V20.4044C21.5005 20.9531 21.0557 21.3979 20.5071 21.3979H15.9202V14.4274H18.2599L18.6103 11.7108H15.9202V9.97644C15.9202 9.18993 16.1386 8.65395 17.2665 8.65395L18.705 8.65332V6.22361C18.4562 6.1905 17.6023 6.11654 16.6088 6.11654C14.5348 6.11654 13.1149 7.38252 13.1149 9.7074V11.7108H10.7692V14.4274H13.1149V21.3979Z" fill="white"/>
</svg>
