<svg width="25" height="25" viewBox="0 0 25 25" fill="none" xmlns="http://www.w3.org/2000/svg">
<path fill-rule="evenodd" clip-rule="evenodd" d="M12.5003 3.39844C10.056 3.39844 9.7495 3.4088 8.78956 3.4526C7.83161 3.49629 7.17737 3.64845 6.6049 3.87094C6.01307 4.10091 5.51116 4.40865 5.01079 4.90899C4.51046 5.40936 4.20272 5.91127 3.97275 6.5031C3.75025 7.07556 3.5981 7.7298 3.5544 8.68775C3.5106 9.64769 3.50024 9.95418 3.50024 12.3985C3.50024 14.8427 3.5106 15.1492 3.5544 16.1091C3.5981 17.0671 3.75025 17.7213 3.97275 18.2938C4.20272 18.8856 4.51046 19.3875 5.01079 19.8879C5.51116 20.3882 6.01307 20.696 6.6049 20.926C7.17737 21.1484 7.83161 21.3006 8.78956 21.3443C9.7495 21.3881 10.056 21.3984 12.5003 21.3984C14.9445 21.3984 15.251 21.3881 16.2109 21.3443C17.1689 21.3006 17.8231 21.1484 18.3956 20.926C18.9874 20.696 19.4893 20.3882 19.9897 19.8879C20.49 19.3875 20.7978 18.8856 21.0278 18.2938C21.2502 17.7213 21.4024 17.0671 21.4461 16.1091C21.4899 15.1492 21.5002 14.8427 21.5002 12.3985C21.5002 9.95418 21.4899 9.64769 21.4461 8.68775C21.4024 7.7298 21.2502 7.07556 21.0278 6.5031C20.7978 5.91127 20.49 5.40936 19.9897 4.90899C19.4893 4.40865 18.9874 4.10091 18.3956 3.87094C17.8231 3.64845 17.1689 3.49629 16.2109 3.4526C15.251 3.4088 14.9445 3.39844 12.5003 3.39844ZM12.5007 5.01953C14.9038 5.01953 15.1884 5.02871 16.1374 5.07201C17.0149 5.11202 17.4915 5.25864 17.8086 5.38189C18.2287 5.54516 18.5285 5.74018 18.8434 6.05514C19.1584 6.37006 19.3534 6.66987 19.5167 7.08997C19.6399 7.4071 19.7866 7.88365 19.8266 8.76114C19.8699 9.71015 19.879 9.99481 19.879 12.3979C19.879 14.801 19.8699 15.0857 19.8266 16.0347C19.7866 16.9122 19.6399 17.3887 19.5167 17.7059C19.3534 18.1259 19.1584 18.4258 18.8434 18.7407C18.5285 19.0556 18.2287 19.2507 17.8086 19.4139C17.4915 19.5372 17.0149 19.6838 16.1374 19.7238C15.1886 19.7671 14.9039 19.7763 12.5007 19.7763C10.0974 19.7763 9.8128 19.7671 8.86389 19.7238C7.9864 19.6838 7.50986 19.5372 7.19272 19.4139C6.77263 19.2507 6.47282 19.0556 6.1579 18.7407C5.84298 18.4258 5.64791 18.1259 5.48465 17.7059C5.36139 17.3887 5.21478 16.9122 5.17476 16.0347C5.13147 15.0857 5.12228 14.801 5.12228 12.3979C5.12228 9.99481 5.13147 9.71015 5.17476 8.76114C5.21478 7.88365 5.36139 7.4071 5.48465 7.08997C5.64791 6.66987 5.84294 6.37006 6.1579 6.05514C6.47282 5.74018 6.77263 5.54516 7.19272 5.38189C7.50986 5.25864 7.9864 5.11202 8.86389 5.07201C9.81291 5.02871 10.0976 5.01953 12.5007 5.01953ZM7.87816 12.399C7.87816 9.8465 9.94731 7.77735 12.4998 7.77735C15.0522 7.77735 17.1214 9.8465 17.1214 12.399C17.1214 14.9514 15.0522 17.0206 12.4998 17.0206C9.94731 17.0206 7.87816 14.9514 7.87816 12.399ZM12.5003 15.3984C10.8434 15.3984 9.50024 14.0553 9.50024 12.3985C9.50024 10.7416 10.8434 9.39844 12.5003 9.39844C14.1571 9.39844 15.5002 10.7416 15.5002 12.3985C15.5002 14.0553 14.1571 15.3984 12.5003 15.3984ZM17.3048 8.67367C17.9013 8.67367 18.3848 8.19016 18.3848 7.59369C18.3848 6.99721 17.9013 6.51367 17.3048 6.51367C16.7084 6.51367 16.2248 6.99721 16.2248 7.59369C16.2248 8.19016 16.7084 8.67367 17.3048 8.67367Z" fill="white"/>
</svg>
