<svg width="454" height="103" viewBox="0 0 454 103" fill="none" xmlns="http://www.w3.org/2000/svg">
<path fill-rule="evenodd" clip-rule="evenodd" d="M0 13.5648C0 24.9574 0.242786 27.1296 1.51741 27.1296C2.83453 27.1296 3.03482 31.3444 3.03482 59.0751V91.0205H16.7411H30.4474L30.1449 56.8289C29.8586 24.5141 29.7251 22.3877 27.712 18.0941C23.3236 8.73408 14.6056 2.24317 4.29933 0.659874L0 0V13.5648ZM44.5441 22.845C33.3345 41.9264 31.3902 45.8367 32.2582 47.5527C32.8247 48.6738 38.7153 58.8005 45.3484 70.0563L57.4067 90.5213L72.7083 90.7969C81.1239 90.9486 88.0099 90.8438 88.0099 90.5652C88.0099 90.2857 82.2518 80.2788 75.2151 68.3272C68.1773 56.3757 62.4223 46.1471 62.4253 45.5981C62.4274 45.049 68.1854 34.8295 75.2201 22.8889C82.2549 10.9483 88.0099 0.952374 88.0099 0.676845C88.0099 0.401316 81.2271 0.1757 72.9359 0.1757H57.862L44.5441 22.845ZM116.335 1.5793C99.6434 5.28796 86.9619 16.8123 81.9494 32.8249C72.5596 62.8257 96.7371 92.9262 128.474 90.7469C151.163 89.1886 168.278 73.0102 171.485 50.0904C172.378 43.7023 170.518 33.9151 167 26.4957C161.053 13.9552 148.932 4.59415 134.817 1.64219C126.693 -0.0569023 123.742 -0.0668851 116.335 1.5793ZM202.283 1.47748C192.074 4.31762 183.304 13.3252 181.165 23.1694C180.506 26.2012 180.066 40.7973 180.066 59.6231V91.0205H193.709H207.351L207.618 59.3246C207.879 28.3825 207.934 27.6288 209.909 27.6288C211.883 27.6288 211.938 28.3825 212.199 59.3246L212.466 91.0205H226.094H239.723L239.99 59.3376C240.244 29.2351 240.352 27.6378 242.159 27.2944C243.205 27.0957 244.45 27.5389 244.926 28.2797C245.401 29.0194 245.797 43.4398 245.806 60.3229L245.821 91.0205H259.02H272.22L271.918 56.3298C271.625 22.5255 271.558 21.5312 269.335 17.4242C265.757 10.8155 261.339 6.47893 255.139 3.48504C247.658 -0.126784 237.497 -0.300488 230.83 3.06975L226.46 5.27798L222.231 3.26143C216.72 0.632919 208.093 -0.138761 202.283 1.47748ZM284.005 0.762697C283.59 1.172 283.25 21.647 283.25 46.264V91.0205H296.907H310.564V59.0751V27.1296H318.043C323.691 27.1296 325.661 27.489 326.093 28.5981C327.014 30.9661 323.905 33.1194 319.566 33.1194H315.561L315.844 45.8477L316.128 58.5759L323.37 58.8674C328.857 59.088 330.761 59.5423 331.227 60.7412C332.412 63.788 329.859 65.0648 322.58 65.0648H315.622V78.0426V91.0205H324.688C335.832 91.0205 343.024 88.6455 348.886 83.0321C355.654 76.5512 357.577 71.9191 357.591 62.0699C357.602 54.3481 357.303 53.0374 354.261 47.5038C351.065 41.6918 350.97 41.2156 352.12 36.7133C355.479 23.5468 348.743 9.61757 336.038 3.46009C330.344 0.700804 330.08 0.671852 307.525 0.346408C295.003 0.165717 284.42 0.352398 284.005 0.762697ZM400.597 1.18498C390.415 2.91901 382.295 7.34046 374.737 15.2679C351.05 40.1115 363.238 80.7331 397.056 89.6618C428.072 97.8498 458.73 70.202 453.391 38.8586C450.103 19.5556 434.78 4.28767 415.617 1.21892C408.47 0.0748727 407.14 0.0718775 400.597 1.18498ZM136.552 29.4976C146.755 36.1602 148.46 49.6052 140.27 58.8105C136.315 63.2549 132.021 65.0648 125.431 65.0648C116.617 65.0648 110.523 60.7143 106.705 51.6957C105.28 48.3304 104.996 48.1827 99.3986 47.8942C94.3497 47.6346 93.5738 47.3291 93.5738 45.5981C93.5738 43.8491 94.3476 43.5646 99.8265 43.306C105.874 43.0205 106.1 42.9117 106.751 39.9877C107.658 35.9126 112.887 30.2283 117.843 27.9313C123.281 25.4106 131.326 26.0844 136.552 29.4976ZM416.318 28.0081C421.119 30.1595 425.247 34.6678 426.874 39.5364C428.018 42.9536 428.138 43.0155 434.296 43.306C439.781 43.5646 440.555 43.8481 440.555 45.5981C440.555 47.3311 439.779 47.6346 434.68 47.8962C428.839 48.1947 428.794 48.2216 426.966 52.3885C423.327 60.6833 416.87 65.0648 408.282 65.0648C402.225 65.0648 398.81 63.6612 394.262 59.2997C384.13 49.5863 387.951 32.2699 401.259 27.5879C406.611 25.7041 411.484 25.8408 416.318 28.0081ZM4.0869 97.4615C3.4162 98.2591 3.1633 99.8314 3.52545 100.955L4.183 103H222.554H440.925L441.582 100.955C443.273 95.7015 457.041 96.0119 222.554 96.0119C33.8697 96.0119 5.14504 96.2026 4.0869 97.4615Z" fill="white"/>
</svg>
