<svg width="25" height="25" viewBox="0 0 25 25" fill="none" xmlns="http://www.w3.org/2000/svg">
<path fill-rule="evenodd" clip-rule="evenodd" d="M5.61901 8.16922H5.59361C4.32362 8.16922 3.50024 7.33834 3.50024 6.28512C3.50024 5.21142 4.34796 4.39795 5.64335 4.39795C6.93769 4.39795 7.73355 5.20937 7.75895 6.28205C7.75895 7.33526 6.93769 8.16922 5.61901 8.16922ZM21.5003 20.397H17.522V14.7724C17.522 13.3001 16.8997 12.2951 15.5313 12.2951C14.4846 12.2951 13.9026 12.9733 13.6316 13.627C13.5422 13.8335 13.5438 14.1116 13.5455 14.3982V14.3982C13.5457 14.4371 13.5459 14.4762 13.5459 14.5152V20.397H9.60471C9.60471 20.397 9.65551 10.4335 9.60471 9.52783H13.5459V11.2337C13.7787 10.4878 15.0381 9.42333 17.0479 9.42333C19.5413 9.42333 21.5003 10.9868 21.5003 14.3533V20.397ZM7.4626 9.52877H3.95425V20.3979H7.4626V9.52877Z" fill="white"/>
</svg>
