<svg width="25" height="25" viewBox="0 0 25 25" fill="none" xmlns="http://www.w3.org/2000/svg">
<path fill-rule="evenodd" clip-rule="evenodd" d="M5.24976 9.25C5.24976 5.38 8.37976 2.25 12.2498 2.25C16.1198 2.25 19.2498 5.38 19.2498 9.25C19.2498 13.42 14.8298 19.17 13.0198 21.36C12.6198 21.84 11.8898 21.84 11.4898 21.36C9.66976 19.17 5.24976 13.42 5.24976 9.25ZM9.74976 9.25C9.74976 10.63 10.8698 11.75 12.2498 11.75C13.6298 11.75 14.7498 10.63 14.7498 9.25C14.7498 7.87 13.6298 6.75 12.2498 6.75C10.8698 6.75 9.74976 7.87 9.74976 9.25Z" fill="white"/>
</svg>
