<svg width="246" height="53" viewBox="0 0 246 53" fill="none" xmlns="http://www.w3.org/2000/svg">
<path d="M25.4579 6.34327C25.4579 7.97988 25.5134 9.18652 25.5827 9.18652C25.8185 9.18652 26.5536 7.52218 26.6368 6.77323C26.7061 6.24619 26.6645 5.78849 26.4981 5.23371C26.2762 4.44315 25.763 3.50002 25.5688 3.50002C25.4995 3.50002 25.4579 4.77602 25.4579 6.34327Z" fill="white"/>
<path d="M42.9337 6.21861C42.1571 7.56395 41.5607 8.70125 41.6023 8.74286C41.741 8.88155 42.5593 8.42386 43.225 7.82747C44.0433 7.09239 44.4733 6.10765 44.5703 4.77618C44.612 4.13818 44.5842 3.77757 44.4871 3.77757C44.4178 3.77757 43.7104 4.87326 42.9337 6.21861Z" fill="white"/>
<path d="M48.2737 4.74828C51.5747 8.39597 53.5303 11.8633 54.7924 16.26C57.1502 24.5678 55.3056 33.7078 49.8687 40.5316C48.8008 41.8631 46.4707 44.1793 45.2224 45.1224C39.6608 49.3804 32.7537 51.3498 25.8606 50.6564C17.6082 49.8103 10.2851 45.3305 5.73593 38.3125C4.18254 35.9408 2.76785 32.6676 2.14372 30.0463C1.26994 26.3431 1.2006 21.6968 1.96342 17.9243C2.79559 13.8328 5.15341 9.07557 7.8857 5.92719C9.20331 4.40155 9.36974 4.16576 8.42661 5.1505C4.21028 9.54713 1.53347 14.9701 0.701295 20.8508C0.465513 22.5429 0.423904 26.6344 0.645817 28.3265C1.39477 34.4013 4.1132 40.0462 8.45435 44.526C12.532 48.7424 18.3988 51.7798 24.1408 52.6674C33.2669 54.0544 42.3237 51.0586 48.7037 44.526C52.1572 41.0032 54.4318 37.0504 55.7494 32.2793C56.5122 29.5054 56.7064 27.9797 56.7064 24.7897C56.7064 22.5983 56.6509 21.6413 56.4151 20.2683C55.9158 17.3557 54.8617 14.2212 53.5303 11.683C52.2543 9.28362 49.9797 6.21845 48.1905 4.54024L47.4554 3.84676L48.2737 4.74828Z" fill="white"/>
<path d="M26.9149 8.82596C26.4018 9.06174 25.8054 9.68587 25.6112 10.199C25.5141 10.4487 25.4586 12.113 25.4586 14.6234V18.6456L20.5072 24.8314C17.7749 28.2433 14.1272 32.7925 12.3797 34.9561C10.646 37.1198 9.20357 38.9505 9.16196 39.006C9.12035 39.0615 9.55031 39.6301 10.119 40.2681C13.406 44.0129 18.3991 46.9116 23.3921 47.9519C25.736 48.4512 29.7721 48.576 32.0883 48.2431C37.2616 47.4803 41.9218 45.2473 45.6388 41.7383L46.6096 40.8229L38.2186 40.8091L29.8275 40.7813L31.1451 40.3375C38.7872 37.7023 42.7955 32.1683 42.7955 24.2211C42.7955 22.529 42.5736 20.3238 42.3656 19.9909C42.1437 19.6164 42.1021 19.977 42.2546 21.1282C42.4211 22.4458 42.324 24.8869 42.0327 26.5789C40.937 32.848 35.8192 37.73 28.7873 39.2418C27.1091 39.6024 22.6986 39.5885 21.0204 39.2279C18.9816 38.7841 16.5544 37.8271 15.0981 36.8979L14.3769 36.4402H16.8318C19.578 36.4402 21.3117 36.1766 23.5863 35.3999C30.5349 33.056 35.3753 27.0228 36.3462 19.4777L36.4433 18.7565H39.342H42.2408V14.665C42.2408 11.156 42.213 10.4903 42.0188 10.1158C41.6998 9.4917 41.4086 9.20044 40.8261 8.89531C40.3406 8.64565 39.9245 8.63178 33.822 8.63178C28.7041 8.64565 27.2478 8.68726 26.9149 8.82596ZM37.8025 10.0187C39.2727 10.7677 39.8691 12.5014 39.1756 13.9715C38.2463 15.941 35.6666 16.3155 34.2242 14.665C33.6417 14.0132 33.4891 13.5971 33.4752 12.7233C33.4475 10.4626 35.8053 9.00626 37.8025 10.0187ZM31.1729 10.2406C32.9066 11.4612 32.9066 13.9993 31.1729 15.2198C30.6181 15.5943 30.4655 15.6359 29.4808 15.6359C28.4961 15.6359 28.3435 15.5943 27.8026 15.2198C26.1382 14.0548 26.0966 11.4196 27.7194 10.31C28.5377 9.76908 28.607 9.74134 29.6472 9.78296C30.4239 9.81069 30.6736 9.89391 31.1729 10.2406Z" fill="white"/>
<path d="M76.641 5.45754V23.75H72.8845V5.45754H76.641ZM86.4325 23.75H82.4499L82.475 20.8101H86.4325C87.4209 20.8101 88.2542 20.5882 88.9327 20.1443C89.6111 19.692 90.122 19.0345 90.4654 18.1718C90.8172 17.3091 90.9931 16.2663 90.9931 15.0435V14.1515C90.9931 13.2134 90.8926 12.3884 90.6916 11.6765C90.4989 10.9645 90.21 10.3657 89.8247 9.87989C89.4394 9.3941 88.9662 9.02976 88.405 8.78686C87.8438 8.53559 87.1989 8.40996 86.4702 8.40996H82.3745V5.45754H86.4702C87.6931 5.45754 88.8112 5.66693 89.8247 6.08571C90.8465 6.49612 91.7301 7.0866 92.4756 7.85716C93.221 8.62773 93.7947 9.54905 94.1968 10.6211C94.6072 11.6848 94.8124 12.87 94.8124 14.1766V15.0435C94.8124 16.3417 94.6072 17.5269 94.1968 18.599C93.7947 19.671 93.221 20.5924 92.4756 21.3629C91.7385 22.1251 90.8549 22.7156 89.8247 23.1344C88.8028 23.5448 87.6721 23.75 86.4325 23.75ZM84.5857 5.45754V23.75H80.8166V5.45754H84.5857ZM110.471 20.8101V23.75H100.734V20.8101H110.471ZM101.966 5.45754V23.75H98.1965V5.45754H101.966ZM109.202 12.9077V15.7722H100.734V12.9077H109.202ZM110.459 5.45754V8.40996H100.734V5.45754H110.459ZM117.323 5.45754V23.75H113.566V5.45754H117.323ZM129.162 8.58585L124.187 23.75H120.179L126.976 5.45754H129.526L129.162 8.58585ZM133.295 23.75L128.308 8.58585L127.906 5.45754H130.481L137.316 23.75H133.295ZM133.069 16.9406V19.893H123.408V16.9406H133.069ZM154.147 8.58585L149.172 23.75H145.165L151.961 5.45754H154.512L154.147 8.58585ZM158.281 23.75L153.293 8.58585L152.891 5.45754H155.467L162.301 23.75H158.281ZM158.055 16.9406V19.893H148.393V16.9406H158.055ZM153.054 0.557768L155.529 4.42733H152.564L149.122 0.557768H153.054ZM178.291 19.9307L182.6 5.45754H186.797L180.427 23.75H177.663L178.291 19.9307ZM174.321 5.45754L178.618 19.9307L179.271 23.75H176.482L170.15 5.45754H174.321ZM193.158 5.45754V23.75H189.402V5.45754H193.158ZM206.857 18.9633C206.857 18.6367 206.807 18.3435 206.706 18.0839C206.614 17.8158 206.438 17.5729 206.179 17.3552C205.919 17.129 205.555 16.9071 205.086 16.6893C204.616 16.4715 204.009 16.2454 203.264 16.0109C202.435 15.7429 201.647 15.4413 200.902 15.1063C200.165 14.7713 199.511 14.3818 198.942 13.9379C198.381 13.4856 197.937 12.9621 197.61 12.3675C197.292 11.7728 197.133 11.0818 197.133 10.2945C197.133 9.5323 197.3 8.84131 197.635 8.22151C197.97 7.59333 198.439 7.05729 199.042 6.61338C199.646 6.16109 200.357 5.8135 201.178 5.57061C202.007 5.32771 202.916 5.20626 203.905 5.20626C205.253 5.20626 206.43 5.44916 207.435 5.93495C208.44 6.42074 209.219 7.0866 209.772 7.93255C210.333 8.77849 210.613 9.74588 210.613 10.8347H206.87C206.87 10.2987 206.756 9.82964 206.53 9.4276C206.313 9.0172 205.978 8.69473 205.525 8.46021C205.081 8.22569 204.52 8.10843 203.842 8.10843C203.188 8.10843 202.644 8.20894 202.208 8.40996C201.773 8.6026 201.446 8.86643 201.229 9.20146C201.011 9.52811 200.902 9.89664 200.902 10.307C200.902 10.6169 200.977 10.8975 201.128 11.1488C201.287 11.4001 201.522 11.6346 201.832 11.8524C202.141 12.0701 202.523 12.2753 202.975 12.468C203.427 12.6606 203.951 12.8491 204.545 13.0333C205.542 13.3349 206.417 13.6741 207.171 14.051C207.933 14.4279 208.57 14.8508 209.081 15.3199C209.592 15.7889 209.977 16.3208 210.237 16.9155C210.496 17.5101 210.626 18.1844 210.626 18.9382C210.626 19.7339 210.471 20.4458 210.161 21.074C209.851 21.7021 209.403 22.234 208.817 22.6695C208.231 23.1051 207.531 23.4359 206.719 23.6621C205.906 23.8882 204.998 24.0013 203.992 24.0013C203.088 24.0013 202.196 23.884 201.316 23.6495C200.437 23.4066 199.637 23.0423 198.917 22.5565C198.205 22.0707 197.635 21.4509 197.208 20.6971C196.781 19.9433 196.567 19.0512 196.567 18.021H200.349C200.349 18.5906 200.437 19.0722 200.613 19.4658C200.789 19.8595 201.036 20.1778 201.354 20.4207C201.681 20.6636 202.066 20.8395 202.51 20.9483C202.962 21.0572 203.456 21.1117 203.992 21.1117C204.646 21.1117 205.182 21.0195 205.601 20.8353C206.028 20.651 206.342 20.3955 206.543 20.0689C206.752 19.7422 206.857 19.3737 206.857 18.9633ZM222.013 5.45754V23.75H218.257V5.45754H222.013ZM227.642 5.45754V8.40996H212.716V5.45754H227.642ZM236.516 8.58585L231.541 23.75H227.533L234.33 5.45754H236.88L236.516 8.58585ZM240.649 23.75L235.662 8.58585L235.26 5.45754H237.835L244.67 23.75H240.649ZM240.423 16.9406V19.893H230.762V16.9406H240.423Z" fill="white"/>
<path d="M72.6051 49.8405V36.5856H80.6046V38.0094H74.2102V42.4881H80.1904V43.912H74.2102V48.4166H80.7082V49.8405H72.6051ZM94.6536 36.5856V49.8405H93.1003L85.8775 39.4333H85.748V49.8405H84.1429V36.5856H85.6962L92.945 47.0186H93.0744V36.5856H94.6536ZM97.7858 38.0094V36.5856H107.727V38.0094H103.559V49.8405H101.954V38.0094H97.7858ZM110.849 49.8405V36.5856H115.328C116.364 36.5856 117.214 36.7625 117.878 37.1163C118.543 37.4658 119.035 37.9469 119.354 38.5596C119.673 39.1723 119.833 39.8691 119.833 40.6501C119.833 41.431 119.673 42.1235 119.354 42.7276C119.035 43.3317 118.545 43.8063 117.885 44.1515C117.224 44.4923 116.381 44.6628 115.354 44.6628H111.73V43.213H115.302C116.01 43.213 116.579 43.1095 117.011 42.9024C117.447 42.6952 117.762 42.4018 117.956 42.0221C118.154 41.6381 118.254 41.1808 118.254 40.6501C118.254 40.1193 118.154 39.6555 117.956 39.2586C117.757 38.8616 117.44 38.5553 117.004 38.3395C116.569 38.1195 115.993 38.0094 115.276 38.0094H112.455V49.8405H110.849ZM117.089 43.8861L120.351 49.8405H118.487L115.276 43.8861H117.089ZM123.153 49.8405V36.5856H131.152V38.0094H124.758V42.4881H130.738V43.912H124.758V48.4166H131.256V49.8405H123.153ZM133.966 38.0094V36.5856H143.907V38.0094H139.739V49.8405H138.134V38.0094H133.966ZM147.029 49.8405V36.5856H155.029V38.0094H148.634V42.4881H154.615V43.912H148.634V48.4166H155.132V49.8405H147.029ZM169.078 36.5856V49.8405H167.524L160.302 39.4333H160.172V49.8405H158.567V36.5856H160.12L167.369 47.0186H167.499V36.5856H169.078ZM174.54 36.5856V49.8405H172.935V36.5856H174.54ZM178.403 36.5856H180.319L184.824 47.5882H184.979L189.484 36.5856H191.399V49.8405H189.898V39.7699H189.769L185.626 49.8405H184.177L180.034 39.7699H179.905V49.8405H178.403V36.5856ZM195.263 49.8405V36.5856H203.263V38.0094H196.868V42.4881H202.848V43.912H196.868V48.4166H203.366V49.8405H195.263ZM217.312 36.5856V49.8405H215.758L208.535 39.4333H208.406V49.8405H206.801V36.5856H208.354L215.603 47.0186H215.732V36.5856H217.312ZM220.444 38.0094V36.5856H230.385V38.0094H226.217V49.8405H224.612V38.0094H220.444ZM244.139 43.213C244.139 44.611 243.887 45.8191 243.382 46.8374C242.877 47.8557 242.185 48.641 241.305 49.1932C240.424 49.7455 239.419 50.0217 238.289 50.0217C237.158 50.0217 236.153 49.7455 235.273 49.1932C234.392 48.641 233.7 47.8557 233.195 46.8374C232.69 45.8191 232.438 44.611 232.438 43.213C232.438 41.815 232.69 40.6069 233.195 39.5886C233.7 38.5704 234.392 37.7851 235.273 37.2328C236.153 36.6805 237.158 36.4044 238.289 36.4044C239.419 36.4044 240.424 36.6805 241.305 37.2328C242.185 37.7851 242.877 38.5704 243.382 39.5886C243.887 40.6069 244.139 41.815 244.139 43.213ZM242.586 43.213C242.586 42.0653 242.394 41.0966 242.01 40.307C241.63 39.5174 241.115 38.9198 240.463 38.5143C239.816 38.1087 239.091 37.9059 238.289 37.9059C237.486 37.9059 236.759 38.1087 236.108 38.5143C235.46 38.9198 234.945 39.5174 234.561 40.307C234.181 41.0966 233.991 42.0653 233.991 43.213C233.991 44.3607 234.181 45.3294 234.561 46.119C234.945 46.9086 235.46 47.5062 236.108 47.9118C236.759 48.3174 237.486 48.5201 238.289 48.5201C239.091 48.5201 239.816 48.3174 240.463 47.9118C241.115 47.5062 241.63 46.9086 242.01 46.119C242.394 45.3294 242.586 44.3607 242.586 43.213Z" fill="white"/>
</svg>
