<svg width="25" height="25" viewBox="0 0 25 25" fill="none" xmlns="http://www.w3.org/2000/svg">
<path fill-rule="evenodd" clip-rule="evenodd" d="M19.4803 15.6592L16.9403 15.3692C16.3303 15.2992 15.7303 15.5092 15.3003 15.9392L13.4603 17.7792C10.6303 16.3392 8.31028 14.0292 6.87028 11.1892L8.72028 9.33918C9.15028 8.90918 9.36028 8.30918 9.29028 7.69918L9.00028 5.17918C8.88028 4.16918 8.03028 3.40918 7.01028 3.40918H5.28028C4.15028 3.40918 3.21028 4.34918 3.28028 5.47918C3.81028 14.0192 10.6403 20.8392 19.1703 21.3692C20.3003 21.4392 21.2403 20.4992 21.2403 19.3692V17.6392C21.2503 16.6292 20.4903 15.7792 19.4803 15.6592Z" fill="white"/>
</svg>
